# xmcd CD database file
#
# Track frame offsets:
#	150
#	65362
#	136179
#	193481
#	230999
#
# Disc length: 3664 seconds
#
# Revision: 0
# Processed by: cddbd v1.5.1PL2 Copyright (c) Steve Scherf et al.
# Submitted via: CDex 1.51
#
DISCID=4b0e4e05
DTITLE=Regina Lindinger - Le Goût - Experience of the Moment
DYEAR=2001
DGENRE=Jazz
TTITLE0=Anrufung
TTITLE1=After Blues After
TTITLE2=Sans Retour
TTITLE3=Dancing Drums
TTITLE4=Neue Wege
EXTD=YEAR: 2001
EXTT0=
EXTT1=
EXTT2=
EXTT3=
EXTT4=
PLAYORDER=
